<mxfile host="app.diagrams.net" agent="Mozilla/5.0 (Windows NT 10.0; Win64; x64) AppleWebKit/537.36 (KHTML, like Gecko) Chrome/132.0.0.0 Safari/537.36" version="25.0.3">
  <diagram name="Page-1" id="UdxnK2dohrZvlcnzYk9A">
    <mxGraphModel dx="1323" dy="898" grid="1" gridSize="10" guides="1" tooltips="1" connect="1" arrows="1" fold="1" page="1" pageScale="1" pageWidth="1200" pageHeight="1600" math="0" shadow="0">
      <root>
        <mxCell id="0" />
        <mxCell id="1" parent="0" />
        <mxCell id="sBx6U-9rC1XNCIM7d0WK-6" value="" style="rounded=1;whiteSpace=wrap;html=1;" vertex="1" parent="1">
          <mxGeometry x="250" y="220" width="520" height="820" as="geometry" />
        </mxCell>
        <mxCell id="sBx6U-9rC1XNCIM7d0WK-13" style="edgeStyle=orthogonalEdgeStyle;rounded=0;orthogonalLoop=1;jettySize=auto;html=1;exitX=0.5;exitY=0.5;exitDx=0;exitDy=0;exitPerimeter=0;entryX=0;entryY=0.5;entryDx=0;entryDy=0;" edge="1" parent="1" source="sBx6U-9rC1XNCIM7d0WK-9" target="sBx6U-9rC1XNCIM7d0WK-11">
          <mxGeometry relative="1" as="geometry" />
        </mxCell>
        <mxCell id="sBx6U-9rC1XNCIM7d0WK-9" value="cosumer" style="shape=umlActor;verticalLabelPosition=bottom;verticalAlign=top;html=1;outlineConnect=0;" vertex="1" parent="1">
          <mxGeometry x="130" y="570" width="40" height="60" as="geometry" />
        </mxCell>
        <mxCell id="sBx6U-9rC1XNCIM7d0WK-10" value="upload/list&amp;nbsp;&lt;div&gt;products&lt;/div&gt;&lt;div&gt;audio&lt;/div&gt;&lt;div&gt;video&lt;/div&gt;&lt;div&gt;text&lt;/div&gt;" style="ellipse;whiteSpace=wrap;html=1;strokeWidth=2;fontStyle=2;fontSize=17;" vertex="1" parent="1">
          <mxGeometry x="420" y="270" width="200" height="140" as="geometry" />
        </mxCell>
        <mxCell id="sBx6U-9rC1XNCIM7d0WK-11" value="buy/watch&amp;nbsp;&lt;div&gt;products&lt;/div&gt;&lt;div&gt;audio&lt;/div&gt;&lt;div&gt;video&lt;/div&gt;&lt;div&gt;text&lt;/div&gt;" style="ellipse;whiteSpace=wrap;html=1;fontStyle=2;fontSize=18;" vertex="1" parent="1">
          <mxGeometry x="400" y="620" width="200" height="130" as="geometry" />
        </mxCell>
        <mxCell id="sBx6U-9rC1XNCIM7d0WK-12" value="producer" style="shape=umlActor;verticalLabelPosition=bottom;verticalAlign=top;html=1;outlineConnect=0;" vertex="1" parent="1">
          <mxGeometry x="130" y="380" width="30" height="60" as="geometry" />
        </mxCell>
        <mxCell id="sBx6U-9rC1XNCIM7d0WK-14" style="edgeStyle=orthogonalEdgeStyle;rounded=0;orthogonalLoop=1;jettySize=auto;html=1;exitX=0.5;exitY=0.5;exitDx=0;exitDy=0;exitPerimeter=0;entryX=0.06;entryY=0.345;entryDx=0;entryDy=0;entryPerimeter=0;" edge="1" parent="1" source="sBx6U-9rC1XNCIM7d0WK-12" target="sBx6U-9rC1XNCIM7d0WK-10">
          <mxGeometry relative="1" as="geometry" />
        </mxCell>
      </root>
    </mxGraphModel>
  </diagram>
</mxfile>
